#!OML:ASF F:\VICON\USERDATA\INSTALL\rory3\rory3.ASF
:FULLY-SPECIFIED
:DEGREES
505
root 3.21114 17.8972 -23.022 -4.116 -1.59403 0.492287
lowerback 23.0263 0.101599 -0.0280967
upperback 2.00908 0.547468 3.69371
thorax -10.7193 0.357886 3.96496
lowerneck -13.641 -0.606402 -4.03756
upperneck 16.569 0.890169 -4.5062
head 7.36846 -0.249309 -0.71709
rclavicle -7.95139e-016 -4.77083e-015
rhumerus -46.2616 -42.5737 -33.3181
rradius 75.3076
rwrist -55.1677
rhand 18.4577 -0.688857
rfingers 7.12502
rthumb 43.0957 -24.9009
lclavicle -7.95139e-016 -4.77083e-015
lhumerus -58.2611 18.2041 64.8056
lradius 43.6255
lwrist 12.779
lhand -10.3155 51.6964
lfingers 7.12502
lthumb 15.6798 81.0811
rfemur -14.2301 5.44765 25.8786
rtibia 31.4435
rfoot -9.88442 -15.1566
rtoes 19.7972
lfemur -9.11859 -2.78488 -13.1615
ltibia 55.4383
lfoot -2.61262 -10.8744
ltoes -30.2336
506
root 3.23159 17.8894 -23.1965 -4.16889 -1.42335 0.79612
lowerback 23.5854 -0.0286298 -0.37694
upperback 1.53468 0.305475 3.63369
thorax -11.5482 0.278241 4.20414
lowerneck -13.3971 -0.58814 -4.4718
upperneck 17.2078 0.977668 -4.25379
head 7.53435 -0.228671 -0.55729
rclavicle -4.96962e-015 2.22639e-014
rhumerus -45.5821 -41.9281 -32.5012
rradius 76.5941
rwrist -53.0513
rhand 19.4128 -0.457536
rfingers 7.12502
rthumb 43.9877 -24.345
lclavicle -4.96962e-015 2.22639e-014
lhumerus -58.9581 18.0166 64.522
lradius 44.4212
lwrist 12.6928
lhand -10.1698 51.7298
lfingers 7.12502
lthumb 15.8201 81.1034
rfemur -14.985 5.50937 25.4027
rtibia 31.7772
rfoot -9.48829 -15.2853
rtoes 20.245
lfemur -7.65313 -2.94144 -13.6211
ltibia 54.7554
lfoot -2.01692 -11.7617
ltoes -30.3966
507
root 3.25266 17.8766 -23.3706 -4.23399 -1.09654 1.15138
lowerback 23.1279 0.0151349 -0.707709
upperback 1.50147 0.25039 3.46062
thorax -11.3307 0.261186 4.20731
lowerneck -12.6501 -0.555299 -4.07266
upperneck 16.9008 0.893967 -4.36087
head 7.30069 -0.233414 -0.661334
rclavicle 5.56597e-015 1.59028e-015
rhumerus -45.4945 -41.8869 -31.2446
rradius 78.0301
rwrist -50.9551
rhand 19.9669 0.0807314
rfingers 7.12502
rthumb 44.5043 -23.6115
lclavicle 5.56597e-015 1.59028e-015
lhumerus -58.639 17.1266 64.8507
lradius 45.2522
lwrist 12.9038
lhand -10.1691 52.0675
lfingers 7.12502
lthumb 15.8208 81.4411
rfemur -15.726 5.46139 24.844
rtibia 32.0793
rfoot -9.12863 -15.3921
rtoes 20.8905
lfemur -6.19177 -3.27431 -14.1909
ltibia 53.9027
lfoot -1.20907 -12.5951
ltoes -30.5707
508
root 3.26866 17.8577 -23.5728 -4.46462 -0.284705 1.44903
lowerback 23.2049 -0.267293 -0.98667
upperback 1.78069 -0.202239 3.42432
thorax -11.0176 0.0539446 4.46715
lowerneck -13.3281 -0.683089 -4.56124
upperneck 17.0987 0.83331 -4.13356
head 7.4852 -0.287603 -0.517247
rclavicle -2.04748e-014 3.02153e-014
rhumerus -44.1734 -41.8833 -30.9606
rradius 79.6254
rwrist -48.8032
rhand 20.2837 0.654599
rfingers 7.12502
rthumb 44.7993 -22.9236
lclavicle -2.04748e-014 3.02153e-014
lhumerus -57.8412 16.9204 65.4757
lradius 46.2147
lwrist 13.3231
lhand -10.4786 52.4168
lfingers 7.12502
lthumb 15.5227 81.8137
rfemur -16.3982 5.08501 24.3214
rtibia 32.4152
rfoot -8.70109 -15.6403
rtoes 21.6328
lfemur -4.79625 -3.87395 -14.6492
ltibia 53.0117
lfoot 0.152351 -13.4341
ltoes -30.1042
509
root 3.2881 17.8511 -23.7515 -4.46324 0.0386292 1.82269
lowerback 23.5678 -0.359654 -1.24696
upperback 1.32932 -0.410499 3.16389
thorax -11.7128 -0.0166456 4.41717
lowerneck -12.6299 -0.667888 -4.04948
upperneck 16.7715 0.720134 -4.32719
head 7.25386 -0.308162 -0.670568
rclavicle 2.10712e-014 0
rhumerus -44.1189 -40.8805 -30.0971
rradius 81.3791
rwrist -46.9296
rhand 20.5246 1.11611
rfingers 7.12502
rthumb 45.0235 -22.3742
lclavicle 2.10712e-014 0
lhumerus -58.1227 15.9637 65.5314
lradius 47.3709
lwrist 13.6577
lhand -10.7292 53.5656
lfingers 7.12502
lthumb 15.2814 82.9811
rfemur -17.2519 4.97794 23.7271
rtibia 32.71
rfoot -8.20995 -15.7372
rtoes 21.4279
lfemur -3.40438 -4.08351 -15.214
ltibia 51.9503
lfoot 1.91124 -13.8824
ltoes -29.4603
510
root 3.30293 17.8278 -23.9346 -4.43072 0.394238 1.95984
lowerback 23.7405 -0.417865 -1.56484
upperback 1.00176 -0.567971 3.14382
thorax -12.168 -0.0566897 4.64859
lowerneck -12.2838 -0.612533 -4.06904
upperneck 17.1146 0.788038 -4.28794
head 7.3047 -0.279192 -0.648484
rclavicle 3.02153e-014 -2.8625e-014
rhumerus -43.7165 -39.9205 -29.2118
rradius 83.0615
rwrist -45.1517
rhand 20.9415 1.46116
rfingers 7.12502
rthumb 45.4111 -21.8746
lclavicle 3.02153e-014 -2.8625e-014
lhumerus -58.159 15.2608 65.8666
lradius 48.3105
lwrist 14.4308
lhand -11.928 54.2289
lfingers 7.12502
lthumb 14.1264 83.7287
rfemur -18.1361 4.95175 23.4069
rtibia 32.9936
rfoot -7.69176 -15.8869
rtoes 20.9795
lfemur -2.10899 -4.27614 -15.449
ltibia 50.8379
lfoot 3.01038 -14.5467
ltoes -29.3049
511
root 3.31774 17.8059 -24.1219 -4.46055 0.84029 2.02985
lowerback 22.7154 -0.558702 -1.507
upperback 1.9301 -0.769689 3.00293
thorax -10.5306 -0.211573 4.45142
lowerneck -14.0732 -0.649849 -4.00772
upperneck 17.1051 0.80644 -4.12698
head 7.6171 -0.273059 -0.611615
rclavicle -1.5704e-014 5.56597e-015
rhumerus -41.9555 -40.9506 -29.3928
rradius 84.5378
rwrist -42.841
rhand 21.2862 2.10018
rfingers 7.12502
rthumb 45.7313 -21.1054
lclavicle -1.5704e-014 5.56597e-015
lhumerus -55.8578 15.3836 66.428
lradius 48.7376
lwrist 14.8057
lhand -12.75 53.7369
lfingers 7.12502
lthumb 13.3341 83.2902
rfemur -18.9102 4.81628 23.1227
rtibia 33.2315
rfoot -7.50151 -16.0026
rtoes 22.1142
lfemur -0.744867 -4.53248 -15.6349
ltibia 49.5709
lfoot 4.26576 -15.7302
ltoes -27.581
512
root 3.32974 17.7815 -24.3118 -4.43509 1.27577 2.25995
lowerback 23.0783 -0.686151 -1.73184
upperback 1.49607 -1.01086 2.81036
thorax -11.1988 -0.296369 4.4688
lowerneck -13.3868 -0.532206 -3.90051
upperneck 17.2702 0.886252 -4.00528
head 7.54832 -0.21286 -0.578884
rclavicle 1.66979e-014 7.95139e-016
rhumerus -41.7782 -39.7851 -28.5988
rradius 86.2159
rwrist -40.7928
rhand 21.7321 2.48819
rfingers 7.12502
rthumb 46.1451 -20.5457
lclavicle 1.66979e-014 7.95139e-016
lhumerus -56.0171 14.5597 66.3533
lradius 49.4756
lwrist 14.6138
lhand -12.3645 53.3073
lfingers 7.12502
lthumb 13.7058 82.836
rfemur -19.8209 4.65844 22.6893
rtibia 33.5679
rfoot -7.08515 -16.189
rtoes 22.5361
lfemur 0.552558 -4.76566 -15.9957
ltibia 48.2271
lfoot 5.10547 -16.0492
ltoes -27.961
513
root 3.34507 17.7568 -24.4999 -4.46148 1.68053 2.40262
lowerback 23.0972 -0.815874 -1.89927
upperback 1.48862 -1.23665 2.70506
thorax -11.1962 -0.396212 4.51963
lowerneck -13.7499 -0.549554 -3.89801
upperneck 17.5467 0.869513 -3.8638
head 7.70274 -0.219245 -0.5374
rclavicle 1.64991e-014 5.56597e-015
rhumerus -40.9525 -39.1823 -28.1634
rradius 87.7881
rwrist -38.8092
rhand 22.3146 2.74766
rfingers 7.12502
rthumb 46.6848 -20.0562
lclavicle 1.64991e-014 5.56597e-015
lhumerus -55.4519 14.27 66.328
lradius 49.9799
lwrist 13.8131
lhand -11.7255 53.1819
lfingers 7.12502
lthumb 14.3215 82.668
rfemur -20.5302 4.50301 22.3424
rtibia 33.6987
rfoot -6.40861 -16.3304
rtoes 22.6063
lfemur 1.93677 -5.05466 -16.3363
ltibia 46.8417
lfoot 5.67602 -16.658
ltoes -28.8376
514
root 3.36332 17.7169 -24.6934 -4.42646 2.29525 2.64921
lowerback 22.7194 -0.935833 -2.13124
upperback 1.52316 -1.47294 2.51645
thorax -10.9275 -0.508788 4.49845
lowerneck -12.8293 -0.637564 -3.41263
upperneck 16.6255 0.605191 -4.16118
head 7.23673 -0.305783 -0.732066
rclavicle 3.10104e-014 -2.3059e-014
rhumerus -40.4282 -38.4977 -27.5966
rradius 89.4089
rwrist -36.9284
rhand 22.2309 3.11502
rfingers 7.12502
rthumb 46.6074 -19.7222
lclavicle 3.10104e-014 -2.3059e-014
lhumerus -54.8821 13.5861 66.4057
lradius 50.6977
lwrist 13.5649
lhand -11.4606 53.0133
lfingers 7.12502
lthumb 14.5767 82.4811
rfemur -21.4335 4.21685 21.819
rtibia 34.0433
rfoot -6.03768 -16.5014
rtoes 23.332
lfemur 3.20614 -5.5946 -16.844
ltibia 45.3496
lfoot 6.63267 -17.245
ltoes -28.6151
